<svg width="503" height="151" viewBox="0 0 503 151" fill="none" xmlns="http://www.w3.org/2000/svg">
<path fill-rule="evenodd" clip-rule="evenodd" d="M483.714 60.2103H502.74C502.883 60.2103 503 60.0849 503 59.9314V41.1563C502.996 36.5664 501.478 32.8323 498.406 30.2235C495.581 27.8253 491.339 26.377 485.667 26.0926C485.525 26.0856 485.408 26.2058 485.408 26.3559V33.4397C485.408 33.5784 485.512 33.6934 485.642 33.7021C490.618 34.0506 494.403 35.6587 494.403 41.2555L483.714 41.2582C483.572 41.2582 483.454 41.3828 483.454 41.5364V59.9322C483.454 60.0849 483.572 60.2103 483.714 60.2103ZM72.1763 75.4093H49.1066C48.7445 75.4093 48.5139 75.7289 48.5139 76.049V88.4498C48.5139 88.8403 48.8103 89.0891 49.1066 89.0891H57.3009V99.0739C57.3009 106.5 55.491 110.48 49.1066 110.48C43.7748 110.48 39.9903 107.246 39.9903 97.1906V68.1961C39.9903 58.5669 42.8535 54.0545 49.2051 54.0545C54.9314 54.0545 57.2682 57.572 57.2682 64.1455V67.8765C57.2682 68.2674 57.5642 68.5161 57.8605 68.5161H72.0447C72.4068 68.5161 72.6374 68.1961 72.6374 67.8765V63.5059C72.769 47.9072 64.4754 39.6638 49.4684 39.6638C34.4614 39.6638 24.6871 48.5825 24.6871 67.3434V98.3634C24.6871 116.84 36.074 124.87 48.7114 124.87C62.8628 124.87 72.7359 119.292 72.7359 98.6474V76.0133C72.7359 75.6371 72.4613 75.3925 72.1763 75.3749V75.4093ZM116.339 108.443H94.1574V41.8549C94.1574 41.464 93.8611 41.2153 93.5651 41.2153H79.6111C79.2489 41.2153 79.0188 41.5351 79.0188 41.8549V122.762C79.0188 123.153 79.3147 123.402 79.6111 123.402H116.306C116.668 123.402 116.898 123.082 116.898 122.762V109.118C116.898 108.727 116.602 108.478 116.306 108.478H116.339V108.443ZM324.79 67.5565C324.79 48.9017 334.367 39.8056 349.012 39.8056C363.459 39.8056 373.168 48.9373 373.102 67.5565V97.1193C373.102 116.022 364.117 124.728 349.012 124.728C333.906 124.728 324.79 116.2 324.79 97.1193V67.5565ZM349.012 110.55C355.133 110.55 357.667 106.073 357.667 96.5506V68.2313C357.667 58.7087 355.199 54.0894 349.012 54.0894C342.825 54.0894 340.356 58.8865 340.356 68.2313V96.5506C340.356 106.109 342.89 110.55 349.012 110.55ZM403.217 39.8056C388.572 39.8056 378.995 48.9017 378.995 67.5565V97.1193C378.995 116.2 388.111 124.728 403.217 124.728C418.322 124.728 427.307 116.022 427.307 97.1193V67.5565C427.374 48.9373 417.664 39.8056 403.217 39.8056ZM411.872 96.5506C411.872 106.073 409.338 110.55 403.217 110.55C397.095 110.55 394.561 106.109 394.561 96.5506V68.2313C394.561 58.8865 397.03 54.0894 403.217 54.0894C409.404 54.0894 411.872 58.7087 411.872 68.2313V96.5506ZM273.651 41.1897H294.582V41.2608C308.733 41.2608 319.397 49.0422 319.397 68.2297V96.4071C319.397 115.417 308.997 123.376 294.418 123.376H273.651C273.355 123.376 273.059 123.127 273.059 122.736V41.9003C273.059 41.545 273.29 41.1897 273.651 41.1897ZM293.76 108.417C300.078 108.417 304.027 104.082 304.027 93.955L304.061 93.9907V69.2959C304.061 59.0623 299.914 54.9408 293.628 54.9408H287.869V108.417H293.76ZM197.336 39.6638H197.106C182.691 39.6638 175.089 48.5468 175.089 61.8717C175.089 75.7432 184.045 82.1984 191.43 87.5216C191.914 87.8706 192.393 88.2154 192.86 88.5564C193.442 88.9855 194.014 89.3995 194.573 89.8034L194.576 89.8059L194.583 89.8113C199.796 93.5843 203.819 96.4964 203.819 102.911C203.819 108.277 200.528 110.409 196.711 110.515C192.498 110.622 189.438 107.14 189.438 102.769V95.6982C189.438 95.2364 189.076 94.8812 188.648 94.8812H175.155C174.694 94.8812 174.365 95.2364 174.365 95.6982V102.876C174.365 117.053 182.329 124.906 196.349 124.906C210.368 124.906 218.859 116.876 218.859 102.769C218.859 88.0803 210.168 81.7324 202.591 76.1979L202.338 76.0133C201.509 75.4018 200.671 74.8057 199.842 74.2164C194.653 70.5253 189.833 67.0963 189.833 61.7648C189.833 56.4705 193.189 53.9832 197.073 53.9832C201.252 53.9832 204.214 57.2167 204.214 61.4808V67.7343C204.214 68.1961 204.576 68.5518 205.004 68.5518H218.497C218.958 68.5518 219.287 68.1961 219.287 67.7343V61.6582C219.32 47.7297 210.928 39.7349 197.336 39.6638ZM245.805 39.6638H246.035C259.627 39.7349 267.986 47.7297 267.986 61.6582V67.7343C267.986 68.1961 267.657 68.5518 267.197 68.5518H253.703C253.276 68.5518 252.913 68.1961 252.913 67.7343V61.4808C252.913 57.2167 249.952 53.9832 245.772 53.9832C241.889 53.9832 238.532 56.4705 238.532 61.7648C238.532 67.0963 243.353 70.5253 248.542 74.2164C249.37 74.8057 250.209 75.4022 251.038 76.0133L251.29 76.1979C258.867 81.7324 267.559 88.0803 267.559 102.769C267.559 116.876 259.068 124.906 245.048 124.906C231.028 124.906 223.064 117.053 223.064 102.876V95.6982C223.064 95.2364 223.393 94.8812 223.854 94.8812H237.347C237.775 94.8812 238.137 95.2364 238.137 95.6982V102.769C238.137 107.14 241.197 110.622 245.41 110.515C249.228 110.409 252.519 108.277 252.519 102.911C252.519 96.4964 248.496 93.5847 243.283 89.8118C242.721 89.4049 242.145 88.9884 241.559 88.5564C241.096 88.2183 240.623 87.8769 240.143 87.5312L240.131 87.5229C232.746 82.1997 223.788 75.7432 223.788 61.8717C223.788 48.5468 231.39 39.6638 245.805 39.6638ZM478.315 66.4982V59.7116C478.315 49.3719 470.351 41.2349 461.201 41.2349H434.018C433.691 41.2349 433.427 41.5192 433.427 41.8745V122.71C433.427 123.066 433.691 123.35 434.018 123.35H447.314C447.674 123.35 447.905 123.03 447.905 122.71V89.0614H454.423C460.48 89.0614 462.387 91.4778 462.387 97.6247V122.64C462.387 123.03 462.685 123.279 462.978 123.279H476.701C477.066 123.279 477.326 122.959 477.326 122.64V98.0866C477.326 89.701 475.188 84.3355 469.727 82.1326C475.222 79.7166 478.315 74.8842 478.315 66.4982ZM463.439 69.3408C463.439 72.7165 460.937 75.4169 457.843 75.4169H447.741V54.8792H457.843C460.937 54.8792 463.439 57.58 463.439 60.92V69.3055V69.3408ZM140.264 41.2349H154.416C154.679 41.2349 154.942 41.4481 155.008 41.7679L173.372 122.497C173.537 122.959 173.207 123.386 172.78 123.386H159.22C158.99 123.386 158.694 123.172 158.628 122.853L155.732 108.391H138.816L135.92 122.853C135.887 123.137 135.624 123.386 135.328 123.386H121.769C121.374 123.386 121.078 122.959 121.176 122.497L139.672 41.7679C139.705 41.4481 139.968 41.2349 140.264 41.2349ZM147.143 66.8891L141.548 94.8178H152.869L147.274 66.8891L147.208 67.28L147.143 66.8891ZM19.2842 41.2153H0.261601C0.117184 41.2153 0 41.3408 0 41.4936V59.8894C0 60.043 0.118009 60.1679 0.261601 60.1679L10.9468 60.1705C10.9468 65.7675 7.16473 67.3757 2.18688 67.7242C2.0565 67.733 1.95499 67.848 1.95499 67.9868V75.07C1.95499 75.2201 2.073 75.3401 2.21412 75.3334C7.88436 75.049 12.1261 73.6002 14.9509 71.2023C18.0232 68.5933 19.5425 64.859 19.5466 60.2686V41.4936C19.5466 41.34 19.4278 41.2153 19.2842 41.2153Z" fill="white"/>
</svg>
