<svg width="129" height="41" viewBox="0 0 129 41" fill="none" xmlns="http://www.w3.org/2000/svg">
<g clip-path="url(#clip0_233_491)">
<path d="M37.3985 28.8107C37.2177 28.3039 37.0065 27.8135 36.8056 27.3592C36.4962 26.6603 36.1723 25.9601 35.8589 25.2833L35.8341 25.2295C33.0392 19.1834 30.0394 13.0546 26.9181 7.01346L26.7856 6.75696C26.4672 6.14007 26.1381 5.50221 25.8003 4.87546C25.3997 4.08229 24.9137 3.335 24.3507 2.64682C23.7171 1.89164 22.9249 1.28429 22.0302 0.867586C21.1356 0.450885 20.16 0.234984 19.1725 0.235107C18.185 0.235231 17.2096 0.451377 16.3149 0.868303C15.4204 1.28523 14.6283 1.89279 13.9949 2.64812C13.4326 3.33646 12.9468 4.08359 12.5462 4.87637C12.2054 5.50874 11.8732 6.15251 11.5519 6.7751L11.4289 7.0134C8.30754 13.0549 5.30776 19.1838 2.51291 25.2294L2.47218 25.3174C2.16424 25.9833 1.84586 26.6718 1.54168 27.3589C1.34067 27.8129 1.12971 28.3029 0.948771 28.811C0.43052 30.1952 0.265376 31.6861 0.468185 33.1498C0.683261 34.6289 1.28212 36.0265 2.20546 37.2038C3.12879 38.3812 4.34457 39.2976 5.73237 39.8623C6.7806 40.286 7.90141 40.5025 9.03249 40.5C9.38779 40.4999 9.74279 40.4792 10.0957 40.4382C11.5262 40.2562 12.9059 39.7911 14.1538 39.0705C15.7908 38.1518 17.4075 36.8055 19.1735 34.8815C20.9396 36.8055 22.5562 38.1518 24.1932 39.0705C25.441 39.7912 26.8208 40.2562 28.2513 40.4382C28.6042 40.4792 28.9593 40.4999 29.3146 40.5C30.4456 40.5025 31.5662 40.286 32.6145 39.8623C34.0023 39.2976 35.2181 38.3812 36.1415 37.2038C37.0649 36.0265 37.6638 34.629 37.879 33.1498C38.0815 31.686 37.9164 30.1951 37.3985 28.8107ZM19.1735 30.9082C16.9873 28.1398 15.5843 25.569 15.0921 23.4138C14.8904 22.6063 14.8428 21.7681 14.9518 20.943C15.0378 20.3381 15.2603 19.7606 15.6024 19.2537C16.0233 18.7084 16.5643 18.2667 17.1835 17.9629C17.8027 17.6591 18.4836 17.5011 19.1738 17.5011C19.864 17.5012 20.5448 17.6592 21.164 17.9632C21.7832 18.2671 22.3241 18.7088 22.745 19.2541C23.0871 19.7612 23.3096 20.3387 23.3956 20.9437C23.5043 21.7693 23.4566 22.6077 23.2545 23.4155C22.7618 25.5704 21.3593 28.1404 19.1735 30.9082ZM35.3254 32.7854C35.175 33.8196 34.7562 34.7967 34.1107 35.6199C33.465 36.4432 32.615 37.084 31.6446 37.4789C30.6634 37.8716 29.5985 38.0108 28.549 37.8834C27.4581 37.743 26.4068 37.3844 25.4583 36.8289C24.0012 36.0111 22.5263 34.7557 20.8665 32.9141C23.5087 29.6594 25.1586 26.6596 25.7695 23.9876C26.0445 22.864 26.1041 21.6987 25.9452 20.5532C25.8012 19.5663 25.4344 18.6248 24.8726 17.7998C24.2145 16.9097 23.3559 16.186 22.3662 15.6874C21.3763 15.1887 20.2828 14.9289 19.1738 14.9289C18.0648 14.9289 16.9713 15.1886 15.9814 15.6871C14.9915 16.1857 14.1329 16.9092 13.4748 17.7993C12.9131 18.6241 12.5464 19.5653 12.4022 20.5519C12.2432 21.6971 12.3025 22.8617 12.5769 23.985C13.1874 26.6581 14.8374 29.6587 17.4805 32.9144C15.8208 34.7557 14.3458 36.0111 12.8887 36.829C11.9402 37.3844 10.889 37.7431 9.79804 37.8834C8.74844 38.0108 7.68359 37.8716 6.70232 37.4789C5.73196 37.084 4.88188 36.4432 4.2363 35.62C3.59073 34.7967 3.17204 33.8196 3.02172 32.7854C2.87714 31.7341 3.00019 30.6634 3.37953 29.672C3.52373 29.2671 3.69247 28.8697 3.90153 28.3976C4.19727 27.7297 4.51112 27.0509 4.81471 26.3945L4.85548 26.3063C7.6347 20.2945 10.6179 14.1997 13.7222 8.19112L13.8458 7.95191C14.1618 7.33936 14.4886 6.70602 14.8184 6.09403C15.1338 5.46327 15.5156 4.86772 15.9573 4.31747C16.3487 3.84515 16.8399 3.46487 17.3957 3.20381C17.9517 2.94275 18.5586 2.80736 19.173 2.8073C19.7874 2.80725 20.3944 2.94256 20.9503 3.20352C21.5062 3.46449 21.9975 3.84469 22.389 4.31695C22.8309 4.86679 23.2128 5.46213 23.528 6.09287C23.8547 6.69941 24.1787 7.32705 24.4921 7.93398L24.6248 8.19139C27.7291 14.1994 30.7121 20.2939 33.4916 26.3068L33.5167 26.3609C33.8255 27.0284 34.1448 27.7183 34.4455 28.3979C34.6548 28.8706 34.8239 29.2684 34.9677 29.6718C35.3469 30.6633 35.4699 31.734 35.3254 32.7854Z" fill="white"/>
<path d="M52.8892 30.5843C51.8826 30.5843 50.9567 30.3827 50.1112 29.9797C49.2657 29.5767 48.5411 29.0123 47.8968 28.2868C47.2527 27.5614 46.7696 26.715 46.4073 25.788C46.0449 24.8206 45.8838 23.7727 45.8838 22.6442C45.8838 21.5156 46.0852 20.4274 46.4474 19.46C46.8098 18.4927 47.3332 17.6463 47.9775 16.8805C48.6216 16.155 49.3865 15.5504 50.2723 15.1474C51.158 14.7443 52.0841 14.5428 53.1308 14.5428C54.1373 14.5428 55.023 14.7443 55.8283 15.1876C56.6335 15.5908 57.2777 16.1953 57.801 16.961L57.9218 14.9862H61.6258V30.1811H57.9218L57.801 27.9644C57.2777 28.7705 56.5932 29.4154 55.7075 29.899C54.9022 30.3425 53.936 30.5843 52.8892 30.5843ZM53.8555 26.9568C54.5802 26.9568 55.2243 26.7552 55.8283 26.3925C56.3919 25.9894 56.8348 25.4655 57.1972 24.8206C57.5193 24.1758 57.6802 23.41 57.6802 22.5635C57.6802 21.7171 57.5193 20.9513 57.1972 20.3064C56.8751 19.6616 56.3919 19.1376 55.8283 18.7346C55.2646 18.3314 54.5802 18.1703 53.8555 18.1703C53.1308 18.1703 52.4866 18.3718 51.8826 18.7346C51.3191 19.1376 50.8762 19.6616 50.5139 20.3064C50.1918 20.9513 50.0307 21.7171 50.0307 22.5635C50.0307 23.41 50.1918 24.1758 50.5139 24.8206C50.8359 25.4655 51.3191 25.9894 51.8826 26.3925C52.4866 26.7552 53.1308 26.9568 53.8555 26.9568ZM67.9468 10.875C67.9468 11.3184 67.8663 11.7214 67.6649 12.0439C67.4636 12.3663 67.1818 12.6484 66.8195 12.85C66.4571 13.0515 66.0545 13.1321 65.652 13.1321C65.2493 13.1321 64.8467 13.0515 64.4843 12.85C64.122 12.6484 63.8402 12.3663 63.6389 12.0439C63.4375 11.6811 63.357 11.3184 63.357 10.875C63.357 10.4317 63.4375 10.0286 63.6389 9.70615C63.8402 9.34341 64.122 9.10158 64.4843 8.90005C64.8467 8.69853 65.2493 8.61792 65.652 8.61792C66.0545 8.61792 66.4571 8.69853 66.8195 8.90005C67.1818 9.10158 67.4636 9.38372 67.6649 9.70615C67.826 10.0286 67.9468 10.3914 67.9468 10.875ZM63.6389 30.1409V14.9458H67.6649V30.1409H63.6389ZM78.4146 18.936V18.9763C78.2133 18.8958 77.9718 18.8554 77.7703 18.8151C77.5289 18.7749 77.3275 18.7749 77.086 18.7749C75.9587 18.7749 75.1131 19.0972 74.5495 19.7825C73.9456 20.4676 73.6638 21.435 73.6638 22.6845V30.1409H69.6378V14.9458H73.3417L73.4625 17.2433C73.8652 16.4371 74.3482 15.8325 75.0327 15.3892C75.6768 14.9458 76.4417 14.7443 77.3275 14.7443C77.6094 14.7443 77.8911 14.7846 78.1327 14.8249C78.2535 14.8653 78.334 14.8653 78.4146 14.9055V18.936ZM80.025 30.1409V8.69853H84.0511V16.8805C84.6148 16.155 85.2589 15.5907 86.0642 15.1474C86.8694 14.7443 87.7551 14.5025 88.7617 14.5025C89.7681 14.5025 90.6941 14.7039 91.5395 15.1071C92.3851 15.5101 93.1097 16.0743 93.754 16.7999C94.3981 17.5254 94.8812 18.3718 95.2436 19.2988C95.606 20.2662 95.7669 21.3141 95.7669 22.4426C95.7669 23.5712 95.5656 24.6594 95.2034 25.6267C94.841 26.594 94.3177 27.4405 93.6734 28.2063C93.0292 28.9318 92.2643 29.5363 91.3786 29.9394C90.4928 30.3425 89.5668 30.5439 88.5201 30.5439C87.5136 30.5439 86.6278 30.3425 85.8226 29.899C85.0173 29.496 84.3732 28.8914 83.8498 28.1256L83.729 30.1006L80.025 30.1409ZM87.7953 26.9568C88.5201 26.9568 89.1642 26.7552 89.7681 26.3925C90.3317 25.9894 90.7746 25.4655 91.137 24.8206C91.459 24.1758 91.6201 23.41 91.6201 22.5635C91.6201 21.7171 91.459 20.9513 91.137 20.3064C90.7746 19.6616 90.3317 19.1376 89.7681 18.7346C89.2045 18.3314 88.5201 18.1703 87.7953 18.1703C87.0707 18.1703 86.4265 18.3718 85.8226 18.7346C85.2589 19.1376 84.816 19.6616 84.4537 20.3064C84.1316 20.9513 83.9706 21.7171 83.9706 22.5635C83.9706 23.41 84.1316 24.1758 84.4537 24.8206C84.7757 25.4655 85.2589 25.9894 85.8226 26.3925C86.4265 26.7552 87.0707 26.9568 87.7953 26.9568ZM97.2969 30.1409V14.9458H101.001L101.122 16.9208C101.565 16.1953 102.168 15.631 102.933 15.1876C103.698 14.7443 104.584 14.5428 105.591 14.5428C106.718 14.5428 107.684 14.8249 108.489 15.3489C109.335 15.8729 109.979 16.6387 110.422 17.606C110.865 18.5733 111.106 19.7421 111.106 21.0722V30.1811H107.08V21.5962C107.08 20.5483 106.839 19.7018 106.356 19.0972C105.873 18.4928 105.228 18.1703 104.383 18.1703C103.779 18.1703 103.255 18.2912 102.772 18.5733C102.329 18.8554 101.967 19.2181 101.685 19.7422C101.404 20.2258 101.283 20.8304 101.283 21.435V30.1409H97.2969ZM113.119 30.1409V8.69853H117.145V16.8805C117.709 16.155 118.353 15.5907 119.159 15.1474C119.964 14.7443 120.849 14.5025 121.856 14.5025C122.863 14.5025 123.788 14.7039 124.634 15.1071C125.479 15.5101 126.204 16.0743 126.848 16.7999C127.493 17.5254 127.975 18.3718 128.338 19.2988C128.701 20.2662 128.861 21.3141 128.861 22.4426C128.861 23.5712 128.661 24.6594 128.298 25.6267C127.935 26.594 127.412 27.4405 126.767 28.2063C126.124 28.9318 125.359 29.5363 124.473 29.9394C123.587 30.3425 122.661 30.5439 121.614 30.5439C120.608 30.5439 119.722 30.3425 118.917 29.899C118.112 29.496 117.468 28.8914 116.944 28.1256L116.823 30.1006L113.119 30.1409ZM120.93 26.9568C121.655 26.9568 122.299 26.7552 122.903 26.3925C123.466 25.9894 123.909 25.4655 124.272 24.8206C124.594 24.1758 124.755 23.41 124.755 22.5635C124.755 21.7171 124.594 20.9513 124.272 20.3064C123.95 19.6616 123.466 19.1376 122.903 18.7346C122.339 18.3314 121.655 18.1703 120.93 18.1703C120.205 18.1703 119.561 18.3718 118.957 18.7346C118.394 19.1376 117.951 19.6616 117.588 20.3064C117.226 20.9513 117.105 21.7171 117.105 22.5635C117.105 23.41 117.266 24.1758 117.588 24.8206C117.91 25.4655 118.394 25.9894 118.957 26.3925C119.561 26.7552 120.165 26.9568 120.93 26.9568Z" fill="white"/>
</g>
<defs>
<clipPath id="clip0_233_491">
<rect width="128.477" height="40.2649" fill="white" transform="translate(0.384033 0.235107)"/>
</clipPath>
</defs>
</svg>
